<?xml version="1.0" encoding="UTF-8" standalone="no"?>
<svg width="68px" height="68px" viewBox="0 0 68 68" version="1.1" xmlns="http://www.w3.org/2000/svg" xmlns:xlink="http://www.w3.org/1999/xlink" xmlns:sketch="http://www.bohemiancoding.com/sketch/ns">
    <!-- Generator: Sketch 3.4.2 (15855) - http://www.bohemiancoding.com/sketch -->
    <title>Path 1 + Oval 1 Copy + Shape + Shape</title>
    <desc>Created with Sketch.</desc>
    <defs></defs>
    <g id="Page-1" stroke="none" stroke-width="1" fill="none" fill-rule="evenodd" sketch:type="MSPage">
        <g id="Path-1-+-Oval-1-Copy-+-Shape-+-Shape" sketch:type="MSLayerGroup" fill="#FFFFFF">
            <g id="Path-1-+-Oval-1-Copy" sketch:type="MSShapeGroup">
                <path d="M34,67.5142857 C52.5094289,67.5142857 67.5142857,52.5094289 67.5142857,34 C67.5142857,15.4905711 52.5094289,0.485714286 34,0.485714286 C15.4905711,0.485714286 0.485714286,15.4905711 0.485714286,34 C0.485714286,52.5094289 15.4905711,67.5142857 34,67.5142857 L34,67.5142857 Z M34,66.5428571 C16.0270763,66.5428571 1.45714286,51.9729237 1.45714286,34 C1.45714286,16.0270763 16.0270763,1.45714286 34,1.45714286 C51.9729237,1.45714286 66.5428571,16.0270763 66.5428571,34 C66.5428571,51.9729237 51.9729237,66.5428571 34,66.5428571 L34,66.5428571 Z" id="Shape"></path>
            </g>
            <g id="Shape-+-Shape" transform="translate(26.500000, 19.500000)" sketch:type="MSShapeGroup">
                <path d="M0,2 L0,27 L0,29 L4,29 L4,27 L4,2 L4,0 L0,0 L0,2 L0,2 Z" id="Shape"></path>
                <path d="M11,2 L11,27 L11,29 L15,29 L15,27 L15,2 L15,0 L11,0 L11,2 L11,2 Z" id="Shape"></path>
            </g>
        </g>
    </g>
</svg>