<?xml version="1.0" encoding="UTF-8" standalone="no"?>
<svg width="34px" height="24px" viewBox="0 0 34 24" version="1.1" xmlns="http://www.w3.org/2000/svg" xmlns:xlink="http://www.w3.org/1999/xlink" xmlns:sketch="http://www.bohemiancoding.com/sketch/ns">
    <!-- Generator: Sketch 3.4.2 (15855) - http://www.bohemiancoding.com/sketch -->
    <title>Rectangle 12 + Group</title>
    <desc>Created with Sketch.</desc>
    <defs></defs>
    <g id="Page-1" stroke="none" stroke-width="1" fill="none" fill-rule="evenodd" sketch:type="MSPage">
        <g id="Rectangle-12-+-Group" sketch:type="MSLayerGroup" transform="translate(-18.000000, -22.000000)">
            <rect id="Rectangle-12" opacity="0.2" sketch:type="MSShapeGroup" x="0" y="0" width="68" height="68" rx="8"></rect>
            <g id="Group" transform="translate(18.000000, 22.000000)" fill="#FFFFFF" sketch:type="MSShapeGroup">
                <path d="M6.6,3.48275862 L33,3.48275862 C33.5522847,3.48275862 34,3.03504337 34,2.48275862 C34,1.93047387 33.5522847,1.48275862 33,1.48275862 L6.6,1.48275862 C6.04771525,1.48275862 5.6,1.93047387 5.6,2.48275862 C5.6,3.03504337 6.04771525,3.48275862 6.6,3.48275862 L6.6,3.48275862 Z" id="Shape"></path>
                <path d="M6.6,12.5862069 L33,12.5862069 C33.5522847,12.5862069 34,12.1384916 34,11.5862069 C34,11.0339221 33.5522847,10.5862069 33,10.5862069 L6.6,10.5862069 C6.04771525,10.5862069 5.6,11.0339221 5.6,11.5862069 C5.6,12.1384916 6.04771525,12.5862069 6.6,12.5862069 L6.6,12.5862069 Z" id="Shape"></path>
                <path d="M6.6,21.6896552 L33,21.6896552 C33.5522847,21.6896552 34,21.2419399 34,20.6896552 C34,20.1373704 33.5522847,19.6896552 33,19.6896552 L6.6,19.6896552 C6.04771525,19.6896552 5.6,20.1373704 5.6,20.6896552 C5.6,21.2419399 6.04771525,21.6896552 6.6,21.6896552 L6.6,21.6896552 Z" id="Shape"></path>
                <path d="M0,9.13766695 L3.02754313e-16,14.2166502 L3.3,11.6771586 L0,9.13766695 Z" id="Path-1"></path>
                <path d="M0,0 L3.02754313e-16,5.07898323 L3.3,2.53949161 L0,0 Z" id="Path-1-Copy"></path>
                <path d="M0,18.1501636 L3.02754313e-16,23.2291468 L3.3,20.6896552 L0,18.1501636 Z" id="Path-1-Copy-2"></path>
            </g>
        </g>
    </g>
</svg>