<?xml version="1.0" encoding="UTF-8" standalone="no"?>
<svg width="68px" height="68px" viewBox="0 0 68 68" version="1.1" xmlns="http://www.w3.org/2000/svg" xmlns:xlink="http://www.w3.org/1999/xlink" xmlns:sketch="http://www.bohemiancoding.com/sketch/ns">
    <!-- Generator: Sketch 3.4.2 (15855) - http://www.bohemiancoding.com/sketch -->
    <title>Path 1 + Oval 1</title>
    <desc>Created with Sketch.</desc>
    <defs></defs>
    <g id="Page-1" stroke="none" stroke-width="1" fill="none" fill-rule="evenodd" sketch:type="MSPage">
        <g id="Path-1-+-Oval-1" sketch:type="MSLayerGroup" fill="#FFFFFF">
            <path d="M26.2285714,18.4571429 L26.2285714,49.756377 L46.6285714,34.1067599 L26.2285714,18.4571429 Z" id="Path-1" sketch:type="MSShapeGroup"></path>
            <path d="M34,67.5142857 C52.5094289,67.5142857 67.5142857,52.5094289 67.5142857,34 C67.5142857,15.4905711 52.5094289,0.485714286 34,0.485714286 C15.4905711,0.485714286 0.485714286,15.4905711 0.485714286,34 C0.485714286,52.5094289 15.4905711,67.5142857 34,67.5142857 L34,67.5142857 Z M34,66.5428571 C16.0270763,66.5428571 1.45714286,51.9729237 1.45714286,34 C1.45714286,16.0270763 16.0270763,1.45714286 34,1.45714286 C51.9729237,1.45714286 66.5428571,16.0270763 66.5428571,34 C66.5428571,51.9729237 51.9729237,66.5428571 34,66.5428571 L34,66.5428571 Z" id="Shape" sketch:type="MSShapeGroup"></path>
        </g>
    </g>
</svg>